<svg width="577" height="193" viewBox="0 0 577 193" fill="none" xmlns="http://www.w3.org/2000/svg">
<path d="M74.4059 86.301L74.0623 16.5968L135.544 51.1466L74.4059 86.301Z" fill="white"/>
<path d="M74.4901 101.99L75.2984 101.575C94.6182 112.965 114.445 123.525 133.798 134.855C134.151 135.058 136.203 136.221 135.985 136.54L74.8394 171.495L74.4967 101.996L74.4901 101.99Z" fill="white"/>
<path d="M0.278809 59.3556L61.7729 93.7066C62.0938 94.129 58.8413 95.9598 58.3843 96.2337C39.5748 107.507 20.1829 117.862 1.44052 129.261L0.628116 128.854L0.285451 59.3555L0.278809 59.3556Z" fill="white"/>
<path d="M65.8842 16.6261L66.2279 86.3303L5.15133 51.7785L65.8842 16.6261Z" fill="white"/>
<path d="M66.3086 101.817L66.6523 171.522L5.56047 136.566L66.3086 101.817Z" fill="white"/>
<path d="M139.679 59.0666L140.021 128.367L79.75 94.215L139.679 59.0666Z" fill="#C4C4C4"/>
<path d="M341.36 97.3202C337.316 96.855 334.629 98.317 333.309 101.697C332.844 102.827 332.55 103.985 332.417 105.181C332.417 105.447 332.35 105.741 332.217 106.074C332.217 107.336 332.331 108.409 332.569 109.301C332.796 110.194 333.281 111.01 334.012 111.741C334.743 112.14 335.749 112.235 337.04 112.036C338.331 111.836 339.347 111.371 340.069 110.64C342.585 108.324 344.341 105.599 345.338 102.485C345.604 101.222 345.366 100.083 344.645 99.0576C343.914 98.0322 342.822 97.4531 341.36 97.3202Z" fill="white"/>
<path d="M334.795 122.742C332.744 123.473 331.216 125.609 330.219 129.15C329.222 132.701 328.576 136.707 328.282 141.179C327.988 145.65 327.836 149.552 327.836 152.866L327.836 154.442C326.829 155.287 325.833 156.151 324.855 157.043C322.605 159.103 321.171 160.423 320.582 161.021L320.383 161.22C316.405 164.866 312.228 168.179 307.851 171.16C303.474 174.142 299.829 175.3 296.914 174.645C293.999 173.98 292.708 169.869 293.041 162.312C293.306 158.666 293.867 153.502 294.73 146.799C295.794 139.641 296.715 132.33 297.512 124.878C298.31 117.425 298.576 111.672 298.31 107.627C297.844 102.519 296.335 98.9403 293.781 96.8896C291.227 94.8389 288.275 93.9275 284.933 94.1554C281.581 94.3927 278.448 95.532 275.534 97.5827C271.29 100.763 267.464 104.874 264.046 109.915C260.628 114.957 257.894 119.58 255.843 123.786C253.793 127.992 252.625 130.565 252.359 131.495L252.065 131.694C251.201 132.093 250.204 131.134 249.084 128.808C247.299 125.162 244.878 122.912 241.83 122.048C238.783 121.185 235.564 121.849 232.185 124.033C229.137 126.482 226.65 129.397 224.732 132.786C223.137 135.236 221.618 137.723 220.156 140.239C217.241 145.147 215.38 147.597 214.592 147.597C213.804 147.597 213.102 144.777 212.504 139.147C212.504 138.084 212.437 137.125 212.304 136.261C212.039 134.343 210.814 133.014 208.63 132.283C206.447 131.552 204.32 131.552 202.269 132.283C200.209 133.014 199.117 134.637 198.984 137.153C199.25 150.407 199.545 163.603 199.877 176.724C200.276 181.832 203.257 184.015 208.83 183.284C211.279 182.819 213.102 181.49 214.298 179.306C215.751 176.724 217.146 174.037 218.475 171.255C218.608 170.99 218.808 170.629 219.073 170.164C219.539 169.167 220.27 167.277 221.257 164.496C222.586 161.249 224.086 157.622 225.776 153.606C227.466 149.6 229.137 146.22 230.798 143.467C232.45 140.713 233.884 139.337 235.071 139.337C235.669 139.47 236.068 139.963 236.267 140.827C236.466 141.691 236.599 142.717 236.666 143.913C236.732 145.109 236.694 146.267 236.571 147.397L236.571 149.581C236.704 151.897 236.77 154.318 236.77 156.834C236.637 160.613 236.799 164.258 237.264 167.771C237.397 169.366 238.261 170.524 239.846 171.255C242.163 172.252 244.47 172.433 246.758 171.806C249.046 171.179 250.688 169.67 251.676 167.287C252.274 165.692 253.366 162.417 254.96 157.442C256.679 151.48 258.825 144.786 261.369 137.362C263.923 129.938 266.553 123.53 269.277 118.128C271.993 112.725 274.508 110.096 276.834 110.219C279.749 110.95 281.211 113.95 281.211 119.219C281.211 124.488 280.717 130.906 279.721 138.454C278.79 145.612 278.192 152.723 277.936 159.777C277.67 166.841 278.543 172.765 280.575 177.578C282.597 182.382 286.528 185.088 292.357 185.677C297.92 186.142 303.588 184.224 309.361 179.914C314.013 176.439 320.146 170.857 327.76 163.167C327.836 168.512 328.301 172.926 329.146 176.382C330.342 181.253 331.728 184.68 333.323 186.674C334.918 188.658 336.371 189.588 337.7 189.455C339.884 189.123 341.441 187.253 342.371 183.835C343.301 180.417 343.814 176.411 343.909 171.806C344.004 167.202 343.956 162.939 343.757 159.027L343.757 152.666C343.956 150.483 344.051 148.223 344.051 145.907C344.184 143.258 344.317 140.533 344.45 137.751C344.45 136.755 344.517 135.834 344.649 134.97C344.782 133.052 344.849 131.163 344.849 129.302C344.317 123.273 340.975 121.08 334.804 122.742L334.795 122.742Z" fill="white"/>
<path d="M555.985 163.362C555.32 160.248 553.858 157.229 551.608 154.315C549.358 151.4 547.858 149.577 547.137 148.846C546.405 147.783 545.513 146.691 544.45 145.561C541.867 142.314 539.247 138.763 536.598 134.918C533.949 131.073 532.554 127.466 532.421 124.086C532.421 122.168 532.934 120.744 533.959 119.814C534.984 118.883 536.456 118.788 538.383 119.519C538.915 119.785 539.475 120.079 540.073 120.412C540.937 120.81 541.896 121.238 542.959 121.703C543.956 121.969 544.981 122.102 546.045 122.102C547.497 122.102 548.599 121.437 549.33 120.117C549.728 119.254 549.823 118.541 549.624 117.981C549.425 117.421 549.092 116.908 548.627 116.443C546.443 114.526 544.07 113.282 541.516 112.712C538.962 112.152 536.228 112 533.313 112.266C527.351 112.864 523.155 114.953 520.734 118.532C518.313 122.111 517.639 125.928 518.693 129.963C519.69 133.475 521.94 137.453 525.452 141.896C528.946 146.311 532.63 150.621 536.513 154.837C531.206 156.099 526.098 156.821 521.171 157.011C513.376 157.305 507.433 155.52 503.322 151.637C499.211 147.764 498.347 141.014 500.74 131.406C500.74 131.14 500.806 130.846 500.939 130.513C501.338 128.918 501.718 127.001 502.078 124.75C502.439 122.5 502.344 120.421 501.784 118.532C501.224 116.643 499.781 115.465 497.455 115C495.993 114.734 494.483 114.82 492.936 115.247C491.379 115.684 490.097 116.263 489.11 116.984C488.379 117.583 487.895 118.276 487.667 119.073C487.429 119.871 487.315 120.564 487.315 121.162L487.116 121.561C481.41 118.513 476.065 116.871 471.062 116.643C466.059 116.415 461.074 117.554 456.099 120.07C452.121 121.931 448.305 124.542 444.669 127.921C441.023 131.301 438.203 134.947 436.219 138.858C433.57 143.966 431.842 149.368 431.045 155.065C430.494 159.023 430.722 162.65 431.71 165.964C430.931 165.631 430.209 165.252 429.573 164.796C426.792 162.812 424.788 160.077 423.554 156.593C422.33 153.109 421.352 149.254 420.621 145.01C420.488 144.412 420.355 143.681 420.222 142.827C419.757 139.646 419.045 136.181 418.086 132.441C417.127 128.7 415.703 125.368 413.814 122.453C411.924 119.538 409.323 117.649 406.01 116.785C402.896 116.187 399.658 116.301 396.316 117.136C392.965 117.962 390.069 119.31 387.62 121.162C382.056 125.273 377.442 130.247 373.797 136.077C371.48 139.124 369.838 141.137 368.879 142.096C367.92 143.055 367.303 143.093 367.037 142.191C366.771 141.298 366.638 139.817 366.638 137.767C366.638 136.314 366.467 134.586 366.145 132.592C366.012 131.662 365.252 130.95 363.857 130.456C362.461 129.963 360.856 129.678 359.034 129.611C357.211 129.545 355.606 129.792 354.211 130.361C352.815 130.921 352.122 131.937 352.122 133.39C352.454 145.523 352.749 157.552 353.015 169.486C353.147 171.28 353.214 172.97 353.214 174.556C353.214 176.606 353.309 178.562 353.508 180.423C353.907 183.204 355.426 184.828 358.084 185.293C362.86 186.622 366.202 184.799 368.129 179.825C368.86 178.03 369.524 176.217 370.113 174.356C370.512 173.16 370.939 171.907 371.404 170.578C371.537 168.261 372.363 164.843 373.892 160.334C375.42 155.824 377.357 151.201 379.711 146.463C382.066 141.726 384.487 137.9 386.965 134.975C389.452 132.061 391.788 131.064 393.971 131.994C396.155 132.925 397.883 136.903 399.145 143.928C400.076 150.356 402.43 156.849 406.209 163.419C409.389 169.248 414.231 173.843 420.725 177.185C427.219 180.537 435.602 181.182 445.884 179.122C445.884 179.122 450.194 179.397 456.242 177.641C459.745 176.768 463.343 175.135 467.036 172.752C467.245 172.619 467.464 172.476 467.672 172.334C467.672 172.334 467.682 172.334 467.691 172.324C467.701 172.324 467.71 172.305 467.729 172.305C468.138 172.03 468.546 171.755 468.954 171.461C469.002 171.423 469.059 171.385 469.106 171.356C469.315 171.204 469.514 171.062 469.723 170.91C469.809 170.843 469.894 170.777 469.979 170.72C476.018 166.21 481.306 160.267 485.844 152.9C487.296 159.726 491.065 164.321 497.132 166.666C503.199 169.021 510.604 169.6 519.357 168.403C520.478 168.252 521.598 168.071 522.728 167.881C520.819 171.489 520.259 174.736 521.047 177.594C522.073 181.306 524.588 184.144 528.604 186.091C532.611 188.046 537.168 188.825 542.276 188.426C547.383 187.828 551.029 186.11 553.213 183.252C555.396 180.404 556.573 177.157 556.744 173.511C556.906 169.866 556.659 166.486 555.994 163.372L555.985 163.362ZM479.075 139.96C476.891 144.602 474.119 149.254 470.777 153.925C467.426 158.596 463.998 162.175 460.486 164.663C456.973 167.15 453.688 167.369 450.64 165.308C448.713 163.457 447.973 159.925 448.4 154.723C448.827 149.52 450.441 144.27 453.223 138.963C456.004 133.665 459.887 129.801 464.853 127.38C469.828 124.959 475.79 125.643 482.749 129.421C482.483 131.804 481.258 135.317 479.065 139.96L479.075 139.96ZM541.867 177.783C541.269 179.768 540.007 180.831 538.089 180.964C537.225 180.831 536.465 180.499 535.801 179.967C535.136 179.435 534.605 178.809 534.206 178.078C533.01 176.094 532.934 173.768 533.959 171.119C534.984 168.47 536.598 166.277 538.782 164.558C539.38 164.293 540.007 164.264 540.671 164.464C541.336 164.663 541.801 165.128 542.067 165.859C542.2 167.055 542.352 168.84 542.513 171.233C542.674 173.616 542.466 175.809 541.867 177.793L541.867 177.783Z" fill="white"/>
<path d="M197.206 78.6902C190.778 75.3673 185.813 70.6394 182.3 64.5158C178.788 58.3922 177.031 51.1769 177.031 42.8887C177.031 34.6005 178.788 27.3661 182.3 21.2045C185.813 15.043 190.778 10.2961 197.206 6.97318C203.633 3.65031 211.029 1.98888 219.393 1.98888C230.226 1.98888 239.264 4.4573 246.517 9.38465L246.517 25.5243C243.232 22.7616 239.473 20.7583 235.257 19.5241C231.033 18.2899 226.238 17.6728 220.855 17.6728C212.709 17.6728 206.263 19.9324 201.526 24.4515C196.779 28.9706 194.405 35.1132 194.405 42.8887C194.405 50.6642 196.798 56.9207 201.583 61.4398C206.367 65.9589 212.785 68.2184 220.855 68.2184C226.381 68.2184 231.279 67.5633 235.533 66.2532C239.796 64.943 243.754 62.8353 247.41 59.9207L247.41 76.0604C240.536 81.1396 231.194 83.684 219.393 83.684C211.029 83.684 203.624 82.0225 197.206 78.6997L197.206 78.6902Z" fill="white"/>
<path d="M272.469 78.5163C266.079 75.0795 261.057 70.2756 257.393 64.1141C253.728 57.9525 251.905 50.8701 251.905 42.8762C251.905 34.8823 253.737 27.7809 257.393 21.5813C261.048 15.3818 266.079 10.5589 272.469 7.12211C278.858 3.68531 285.969 1.96691 293.821 1.96691C301.672 1.96691 308.745 3.68531 315.059 7.12211C321.372 10.5589 326.356 15.3818 330.021 21.5813C333.686 27.7809 335.508 34.8823 335.508 42.8762C335.508 50.8701 333.676 57.9525 330.021 64.1141C326.356 70.2756 321.372 75.0795 315.059 78.5163C308.745 81.9531 301.663 83.6715 293.821 83.6715C285.979 83.6715 278.858 81.9531 272.469 78.5163ZM306.087 64.902C309.789 62.8513 312.714 59.9367 314.888 56.1581C317.052 52.3891 318.135 47.9554 318.135 42.8762C318.135 37.7969 317.071 33.4772 314.945 29.7081C312.818 25.939 309.903 23.0244 306.201 20.9642C302.498 18.9135 298.378 17.8787 293.821 17.8787C289.264 17.8787 285.02 18.904 281.327 20.9642C277.624 23.0244 274.7 25.9296 272.526 29.7081C270.361 33.4772 269.279 37.8729 269.279 42.8762C269.279 47.8795 270.361 52.3891 272.526 56.1581C274.69 59.9272 277.643 62.8419 281.384 64.902C285.115 66.9622 289.264 67.9876 293.821 67.9876C298.378 67.9876 302.394 66.9622 306.096 64.902L306.087 64.902Z" fill="white"/>
<path d="M344.918 3.64806L361.95 3.64806L361.95 35.0254L396.128 35.0254L396.128 3.64806L413.16 3.64806L413.16 81.9823L396.128 81.9823L396.128 49.1429L361.95 49.1429L361.95 81.9823L344.918 81.9823L344.918 3.64806Z" fill="white"/>
<path d="M453.969 3.64806L470.669 3.64806L501.932 81.9823L484.559 81.9823L477.837 64.9503L446.792 64.9503L440.07 81.9823L422.592 81.9823L453.969 3.64806ZM473.356 51.393L462.257 21.5821L451.159 51.393L473.346 51.393L473.356 51.393Z" fill="white"/>
<path d="M511.348 3.65755L549.789 3.65755C557.185 3.65755 562.976 5.48987 567.163 9.14503C571.349 12.8097 573.438 18.1073 573.438 25.0568C573.438 28.5696 572.612 31.7595 570.97 34.6362C569.327 37.5128 567.087 39.7344 564.248 41.3009C568.131 42.725 571.046 44.8706 572.992 47.7473C574.938 50.6239 575.907 54.374 575.907 59.007C575.907 63.6401 574.843 67.8079 572.717 71.2827C570.59 74.7575 567.675 77.4063 563.973 79.2386C560.27 81.0709 556.188 81.9823 551.697 81.9823L511.348 81.9823L511.348 3.64806L511.348 3.65755ZM546.542 35.4906C549.532 35.4906 551.887 34.7406 553.605 33.2501C555.324 31.7595 556.188 29.3671 556.188 26.0727C556.188 22.484 555.343 20.0251 553.662 18.6769C551.982 17.3288 549.418 16.6642 545.982 16.6642L528.389 16.6642L528.389 35.4906L546.542 35.4906ZM547.548 69.0042C551.213 69.0042 553.995 68.2731 555.893 66.8205C557.802 65.368 558.751 62.8046 558.751 59.14C558.751 55.4753 557.764 52.7126 555.779 51.0701C553.795 49.4277 550.862 48.6017 546.979 48.6017L528.37 48.6017L528.37 68.9947L547.539 68.9947L547.548 69.0042Z" fill="white"/>
</svg>
