<svg width="577" height="193" viewBox="0 0 577 193" fill="none" xmlns="http://www.w3.org/2000/svg">
<path d="M74.4059 86.3L74.0623 16.5958L135.544 51.1456L74.4059 86.3Z" fill="#033981"/>
<path d="M74.4901 101.992L75.2984 101.578C94.6182 112.968 114.445 123.527 133.798 134.857C134.151 135.061 136.203 136.223 135.985 136.542L74.8394 171.498L74.4967 101.999L74.4901 101.992Z" fill="#033981"/>
<path d="M0.278564 59.358L61.7726 93.7091C62.0936 94.1314 58.8411 95.9623 58.3841 96.2361C39.5746 107.509 20.1827 117.865 1.44028 129.264L0.627872 128.857L0.285207 59.358L0.278564 59.358Z" fill="#033981"/>
<path d="M65.8842 16.6266L66.2279 86.3308L5.15133 51.779L65.8842 16.6266Z" fill="#033981"/>
<path d="M66.3086 101.816L66.6523 171.521L5.56047 136.565L66.3086 101.816Z" fill="#033981"/>
<path d="M139.679 59.069L140.021 128.369L79.75 94.2175L139.679 59.069Z" fill="#737373"/>
<path d="M341.359 97.3197C337.315 96.8545 334.628 98.3165 333.308 101.696C332.843 102.826 332.549 103.984 332.416 105.181C332.416 105.446 332.349 105.741 332.217 106.073C332.217 107.336 332.33 108.409 332.568 109.301C332.796 110.193 333.28 111.01 334.011 111.741C334.742 112.14 335.748 112.235 337.039 112.035C338.331 111.836 339.346 111.371 340.068 110.64C342.584 108.323 344.34 105.598 345.337 102.484C345.603 101.222 345.366 100.082 344.644 99.0571C343.913 98.0317 342.821 97.4526 341.359 97.3197Z" fill="#033981"/>
<path d="M334.794 122.741C332.743 123.472 331.215 125.608 330.218 129.149C329.221 132.7 328.576 136.707 328.281 141.178C327.987 145.65 327.835 149.552 327.835 152.865L327.835 154.441C326.829 155.286 325.832 156.15 324.854 157.043C322.604 159.103 321.17 160.422 320.582 161.021L320.382 161.22C316.404 164.866 312.227 168.179 307.85 171.16C303.474 174.141 299.828 175.299 296.913 174.644C293.999 173.98 292.708 169.869 293.04 162.312C293.306 158.666 293.866 153.501 294.73 146.799C295.793 139.64 296.714 132.33 297.511 124.877C298.309 117.424 298.575 111.671 298.309 107.627C297.844 102.519 296.334 98.9398 293.78 96.8891C291.226 94.8384 288.274 93.927 284.932 94.1549C281.581 94.3922 278.448 95.5315 275.533 97.5822C271.289 100.763 267.463 104.873 264.045 109.915C260.628 114.956 257.893 119.58 255.843 123.785C253.792 127.991 252.624 130.564 252.358 131.494L252.064 131.694C251.2 132.093 250.203 131.134 249.083 128.808C247.298 125.162 244.877 122.912 241.83 122.048C238.782 121.184 235.564 121.849 232.184 124.032C229.136 126.482 226.649 129.396 224.731 132.786C223.136 135.235 221.617 137.722 220.155 140.238C217.24 145.147 215.38 147.596 214.592 147.596C213.804 147.596 213.101 144.776 212.503 139.147C212.503 138.083 212.437 137.124 212.304 136.26C212.038 134.343 210.813 133.013 208.629 132.282C206.446 131.551 204.319 131.551 202.269 132.282C200.208 133.013 199.117 134.637 198.984 137.153C199.249 150.406 199.544 163.603 199.876 176.723C200.275 181.831 203.256 184.015 208.829 183.284C211.278 182.819 213.101 181.489 214.297 179.306C215.75 176.723 217.145 174.037 218.475 171.255C218.608 170.989 218.807 170.628 219.073 170.163C219.538 169.166 220.269 167.277 221.256 164.495C222.586 161.248 224.086 157.622 225.775 153.606C227.465 149.599 229.136 146.219 230.798 143.466C232.45 140.713 233.883 139.336 235.07 139.336C235.668 139.469 236.067 139.963 236.266 140.827C236.466 141.691 236.599 142.716 236.665 143.912C236.731 145.109 236.693 146.267 236.57 147.397L236.57 149.58C236.703 151.897 236.769 154.318 236.769 156.834C236.636 160.612 236.798 164.258 237.263 167.771C237.396 169.366 238.26 170.524 239.845 171.255C242.162 172.252 244.469 172.432 246.757 171.806C249.045 171.179 250.687 169.669 251.675 167.286C252.273 165.692 253.365 162.416 254.96 157.441C256.678 151.479 258.824 144.786 261.368 137.362C263.922 129.937 266.552 123.529 269.277 118.127C271.992 112.725 274.508 110.095 276.834 110.219C279.748 110.95 281.21 113.95 281.21 119.219C281.21 124.488 280.717 130.906 279.72 138.453C278.789 145.612 278.191 152.723 277.935 159.777C277.669 166.84 278.543 172.764 280.574 177.578C282.597 182.382 286.527 185.088 292.356 185.676C297.92 186.141 303.588 184.224 309.36 179.913C314.012 176.439 320.145 170.856 327.759 163.166C327.835 168.511 328.3 172.926 329.145 176.382C330.341 181.252 331.728 184.679 333.323 186.673C334.917 188.657 336.37 189.588 337.699 189.455C339.883 189.122 341.44 187.252 342.37 183.834C343.301 180.417 343.813 176.41 343.908 171.806C344.003 167.201 343.956 162.938 343.756 159.027L343.756 152.666C343.956 150.482 344.051 148.223 344.051 145.906C344.184 143.257 344.316 140.533 344.449 137.751C344.449 136.754 344.516 135.833 344.649 134.969C344.782 133.051 344.848 131.162 344.848 129.301C344.316 123.273 340.975 121.08 334.804 122.741L334.794 122.741Z" fill="#033981"/>
<path d="M555.984 163.362C555.32 160.248 553.857 157.229 551.607 154.314C549.357 151.399 547.857 149.577 547.136 148.846C546.405 147.782 545.512 146.69 544.449 145.561C541.867 142.314 539.246 138.763 536.598 134.918C533.949 131.073 532.553 127.465 532.42 124.085C532.42 122.168 532.933 120.744 533.958 119.813C534.984 118.883 536.455 118.788 538.382 119.519C538.914 119.785 539.474 120.079 540.072 120.411C540.936 120.81 541.895 121.237 542.958 121.702C543.955 121.968 544.981 122.101 546.044 122.101C547.497 122.101 548.598 121.437 549.329 120.117C549.728 119.253 549.823 118.541 549.623 117.981C549.424 117.421 549.092 116.908 548.626 116.443C546.443 114.525 544.069 113.281 541.515 112.712C538.962 112.152 536.227 112 533.313 112.265C527.35 112.864 523.154 114.952 520.733 118.531C518.312 122.111 517.638 125.927 518.692 129.962C519.689 133.475 521.939 137.453 525.452 141.896C528.945 146.311 532.629 150.621 536.512 154.836C531.205 156.099 526.097 156.82 521.17 157.01C513.375 157.305 507.432 155.52 503.321 151.637C499.211 147.763 498.347 141.013 500.739 131.405C500.739 131.139 500.806 130.845 500.938 130.513C501.337 128.918 501.717 127 502.078 124.75C502.438 122.5 502.344 120.421 501.783 118.531C501.223 116.642 499.78 115.465 497.454 115C495.992 114.734 494.483 114.819 492.935 115.247C491.378 115.683 490.096 116.262 489.109 116.984C488.378 117.582 487.894 118.275 487.666 119.073C487.429 119.87 487.315 120.563 487.315 121.161L487.115 121.56C481.409 118.512 476.064 116.87 471.061 116.642C466.058 116.414 461.073 117.554 456.099 120.069C452.121 121.93 448.304 124.541 444.668 127.921C441.022 131.301 438.203 134.946 436.218 138.858C433.57 143.966 431.842 149.368 431.044 155.064C430.494 159.023 430.721 162.65 431.709 165.963C430.93 165.631 430.209 165.251 429.573 164.795C426.791 162.811 424.788 160.077 423.554 156.593C422.329 153.108 421.351 149.254 420.62 145.01C420.487 144.412 420.354 143.681 420.221 142.826C419.756 139.646 419.044 136.181 418.085 132.44C417.126 128.699 415.702 125.367 413.813 122.452C411.923 119.538 409.322 117.649 406.009 116.785C402.895 116.186 399.657 116.3 396.316 117.136C392.964 117.962 390.069 119.31 387.619 121.161C382.056 125.272 377.442 130.247 373.796 136.076C371.479 139.124 369.837 141.136 368.878 142.095C367.919 143.054 367.302 143.092 367.036 142.19C366.77 141.298 366.638 139.817 366.638 137.766C366.638 136.314 366.467 134.586 366.144 132.592C366.011 131.662 365.251 130.949 363.856 130.456C362.46 129.962 360.856 129.677 359.033 129.611C357.21 129.544 355.606 129.791 354.21 130.361C352.814 130.921 352.121 131.937 352.121 133.389C352.454 145.523 352.748 157.551 353.014 169.485C353.147 171.28 353.213 172.97 353.213 174.555C353.213 176.606 353.308 178.561 353.507 180.422C353.906 183.204 355.425 184.827 358.084 185.293C362.859 186.622 366.201 184.799 368.128 179.824C368.859 178.03 369.524 176.216 370.112 174.356C370.511 173.159 370.938 171.906 371.403 170.577C371.536 168.261 372.362 164.843 373.891 160.333C375.419 155.824 377.356 151.2 379.711 146.463C382.065 141.725 384.486 137.899 386.964 134.975C389.451 132.06 391.787 131.063 393.971 131.994C396.154 132.924 397.882 136.902 399.145 143.928C400.075 150.355 402.43 156.849 406.208 163.419C409.389 169.248 414.231 173.843 420.724 177.185C427.218 180.536 435.601 181.182 445.883 179.122C445.883 179.122 450.193 179.397 456.241 177.641C459.744 176.767 463.343 175.134 467.036 172.751C467.245 172.618 467.463 172.476 467.672 172.333C467.672 172.333 467.681 172.333 467.691 172.324C467.7 172.324 467.71 172.305 467.729 172.305C468.137 172.03 468.545 171.754 468.953 171.46C469.001 171.422 469.058 171.384 469.105 171.356C469.314 171.204 469.514 171.061 469.722 170.909C469.808 170.843 469.893 170.776 469.979 170.719C476.017 166.21 481.305 160.267 485.843 152.899C487.296 159.726 491.065 164.321 497.131 166.666C503.198 169.02 510.603 169.599 519.357 168.403C520.477 168.251 521.597 168.071 522.727 167.881C520.819 171.489 520.259 174.735 521.047 177.593C522.072 181.305 524.588 184.144 528.604 186.09C532.61 188.046 537.167 188.824 542.275 188.426C547.383 187.828 551.028 186.109 553.212 183.251C555.395 180.403 556.573 177.156 556.744 173.511C556.905 169.865 556.658 166.485 555.994 163.371L555.984 163.362ZM479.074 139.959C476.89 144.602 474.118 149.254 470.776 153.925C467.425 158.596 463.998 162.175 460.485 164.662C456.972 167.15 453.687 167.368 450.64 165.308C448.712 163.457 447.972 159.925 448.399 154.722C448.826 149.52 450.44 144.269 453.222 138.962C456.004 133.665 459.887 129.801 464.852 127.38C469.827 124.959 475.789 125.642 482.748 129.421C482.482 131.804 481.258 135.317 479.064 139.959L479.074 139.959ZM541.867 177.783C541.269 179.767 540.006 180.831 538.088 180.963C537.224 180.831 536.465 180.498 535.8 179.967C535.135 179.435 534.604 178.808 534.205 178.077C533.009 176.093 532.933 173.767 533.958 171.118C534.984 168.469 536.598 166.276 538.781 164.558C539.379 164.292 540.006 164.264 540.67 164.463C541.335 164.662 541.8 165.128 542.066 165.859C542.199 167.055 542.351 168.84 542.512 171.232C542.674 173.615 542.465 175.808 541.867 177.792L541.867 177.783Z" fill="#033981"/>
<path d="M197.205 78.6897C190.777 75.3668 185.812 70.6389 182.299 64.5153C178.786 58.3917 177.03 51.1764 177.03 42.8882C177.03 34.6 178.786 27.3656 182.299 21.2041C185.812 15.0425 190.777 10.2956 197.205 6.97269C203.632 3.64982 211.028 1.98839 219.392 1.98839C230.224 1.98839 239.263 4.45681 246.516 9.38415L246.516 25.5238C243.231 22.7611 239.471 20.7579 235.256 19.5236C231.031 18.2894 226.237 17.6723 220.854 17.6723C212.708 17.6723 206.262 19.9319 201.524 24.451C196.777 28.9701 194.404 35.1127 194.404 42.8882C194.404 50.6637 196.796 56.9202 201.581 61.4393C206.366 65.9584 212.784 68.2179 220.854 68.2179C226.379 68.2179 231.278 67.5628 235.532 66.2527C239.794 64.9425 243.753 62.8349 247.408 59.9202L247.408 76.0599C240.535 81.1391 231.193 83.6835 219.392 83.6835C211.028 83.6835 203.622 82.0221 197.205 78.6992L197.205 78.6897Z" fill="#033981"/>
<path d="M272.468 78.5158C266.078 75.079 261.056 70.2751 257.391 64.1136C253.727 57.952 251.904 50.8696 251.904 42.8757C251.904 34.8818 253.736 27.7804 257.391 21.5809C261.046 15.3813 266.078 10.5584 272.468 7.12162C278.857 3.68482 285.968 1.96641 293.819 1.96641C301.671 1.96641 308.744 3.68482 315.057 7.12161C321.371 10.5584 326.355 15.3813 330.02 21.5809C333.684 27.7804 335.507 34.8818 335.507 42.8757C335.507 50.8696 333.675 57.952 330.02 64.1136C326.355 70.2751 321.371 75.079 315.057 78.5158C308.744 81.9526 301.661 83.671 293.819 83.671C285.977 83.671 278.857 81.9526 272.468 78.5158ZM306.086 64.9015C309.788 62.8509 312.712 59.9362 314.886 56.1577C317.051 52.3886 318.133 47.9549 318.133 42.8757C318.133 37.7964 317.07 33.4767 314.943 29.7076C312.817 25.9386 309.902 23.0239 306.2 20.9637C302.497 18.913 298.377 17.8782 293.819 17.8782C289.262 17.8782 285.019 18.9035 281.325 20.9637C277.623 23.0239 274.699 25.9291 272.525 29.7076C270.36 33.4767 269.278 37.8724 269.278 42.8757C269.278 47.879 270.36 52.3886 272.525 56.1577C274.689 59.9267 277.642 62.8414 281.382 64.9015C285.114 66.9617 289.262 67.9871 293.819 67.9871C298.377 67.9871 302.392 66.9617 306.095 64.9015L306.086 64.9015Z" fill="#033981"/>
<path d="M344.917 3.64757L361.949 3.64757L361.949 35.0249L396.127 35.0249L396.127 3.64757L413.159 3.64757L413.159 81.9818L396.127 81.9818L396.127 49.1424L361.949 49.1424L361.949 81.9818L344.917 81.9818L344.917 3.64757Z" fill="#033981"/>
<path d="M453.968 3.64757L470.668 3.64757L501.931 81.9818L484.557 81.9818L477.836 64.9498L446.791 64.9498L440.069 81.9818L422.591 81.9818L453.968 3.64757ZM473.354 51.3925L462.256 21.5816L451.158 51.3925L473.345 51.3925L473.354 51.3925Z" fill="#033981"/>
<path d="M511.347 3.65706L549.788 3.65706C557.183 3.65706 562.975 5.48938 567.161 9.14454C571.348 12.8092 573.437 18.1068 573.437 25.0563C573.437 28.5691 572.611 31.759 570.968 34.6357C569.326 37.5124 567.085 39.7339 564.247 41.3004C568.13 42.7245 571.044 44.8701 572.991 47.7468C574.937 50.6234 575.905 54.3735 575.905 59.0066C575.905 63.6396 574.842 67.8074 572.715 71.2822C570.589 74.757 567.674 77.4058 563.971 79.2381C560.269 81.0704 556.186 81.9818 551.696 81.9818L511.347 81.9818L511.347 3.64757L511.347 3.65706ZM546.541 35.4901C549.531 35.4901 551.886 34.7401 553.604 33.2496C555.322 31.759 556.186 29.3666 556.186 26.0722C556.186 22.4835 555.341 20.0246 553.661 18.6764C551.981 17.3283 549.417 16.6637 545.98 16.6637L528.388 16.6637L528.388 35.4901L546.541 35.4901ZM547.547 69.0037C551.212 69.0037 553.993 68.2726 555.892 66.8201C557.8 65.3675 558.75 62.8041 558.75 59.1395C558.75 55.4748 557.762 52.7121 555.778 51.0697C553.794 49.4272 550.86 48.6012 546.977 48.6012L528.369 48.6012L528.369 68.9942L547.537 68.9942L547.547 69.0037Z" fill="#033981"/>
</svg>
