<svg width="140" height="155" viewBox="0 0 140 155" fill="none" xmlns="http://www.w3.org/2000/svg">
<path d="M74.1275 69.7042L73.7839 0L135.266 34.5498L74.1275 69.7042Z" fill="white"/>
<path d="M74.2116 85.3942L75.0199 84.9795C94.3397 96.3695 114.167 106.929 133.52 118.259C133.873 118.463 135.924 119.625 135.707 119.944L74.5609 154.9L74.2182 85.4008L74.2116 85.3942Z" fill="white"/>
<path d="M0 42.7597L61.4941 77.1107C61.815 77.5331 58.5625 79.364 58.1055 79.6378C39.296 90.911 19.9041 101.266 1.16171 112.665L0.349304 112.259L0.00663757 42.7597L0 42.7597Z" fill="white"/>
<path d="M65.6056 0.0299848L65.9493 69.7342L4.87276 35.1824L65.6056 0.0299848Z" fill="white"/>
<path d="M66.0299 85.219L66.3736 154.923L5.28177 119.967L66.0299 85.219Z" fill="white"/>
<path d="M139.4 42.4707L139.742 111.771L79.4713 77.6191L139.4 42.4707Z" fill="#737373"/>
</svg>
