<svg xmlns="http://www.w3.org/2000/svg" xmlns:xlink="http://www.w3.org/1999/xlink" width="577" zoomAndPan="magnify" viewBox="0 0 432.75 144.749998" height="193" preserveAspectRatio="xMidYMid meet" version="1.0"><defs><clipPath id="55c682629c"><path d="M 5.914062 0.554688 L 94.746094 0.554688 L 94.746094 89.398438 L 5.914062 89.398438 Z M 5.914062 0.554688 " clip-rule="nonzero"/></clipPath><clipPath id="e6e3a16b5e"><path d="M 0.914062 0.554688 L 89.746094 0.554688 L 89.746094 89.398438 L 0.914062 89.398438 Z M 0.914062 0.554688 " clip-rule="nonzero"/></clipPath><clipPath id="a12d247430"><rect x="0" width="90" y="0" height="90"/></clipPath><clipPath id="812fa5003f"><path d="M 13 36 L 87.894531 36 L 87.894531 70.796875 L 13 70.796875 Z M 13 36 " clip-rule="nonzero"/></clipPath><clipPath id="2feca5bd0a"><path d="M 62.753906 36.113281 L 50.335938 53.40625 L 37.914062 36.113281 L 13.074219 70.699219 L 37.914062 70.699219 L 50.335938 53.40625 L 62.753906 70.699219 L 87.605469 70.699219 Z M 62.753906 36.113281 " clip-rule="nonzero"/></clipPath><clipPath id="ec7eb5aaf2"><path d="M 0 0 L 74.695312 0 L 74.695312 34.796875 L 0 34.796875 Z M 0 0 " clip-rule="nonzero"/></clipPath><clipPath id="35202b2c0b"><path d="M 49.753906 0.113281 L 37.335938 17.40625 L 24.914062 0.113281 L 0.0742188 34.699219 L 24.914062 34.699219 L 37.335938 17.40625 L 49.753906 34.699219 L 74.605469 34.699219 Z M 49.753906 0.113281 " clip-rule="nonzero"/></clipPath><clipPath id="c74141214d"><rect x="0" width="75" y="0" height="35"/></clipPath><clipPath id="e63668a391"><path d="M 37.808594 53.1875 L 62.851562 53.1875 L 62.851562 70.796875 L 37.808594 70.796875 Z M 37.808594 53.1875 " clip-rule="nonzero"/></clipPath><clipPath id="81d7dddba9"><path d="M 37.914062 70.699219 L 50.335938 53.40625 L 62.753906 70.699219 Z M 37.914062 70.699219 " clip-rule="nonzero"/></clipPath><clipPath id="8f0b6a1957"><path d="M 0.863281 0.1875 L 25.78125 0.1875 L 25.78125 17.796875 L 0.863281 17.796875 Z M 0.863281 0.1875 " clip-rule="nonzero"/></clipPath><clipPath id="1e4bfae88a"><path d="M 0.914062 17.699219 L 13.335938 0.40625 L 25.753906 17.699219 Z M 0.914062 17.699219 " clip-rule="nonzero"/></clipPath><clipPath id="f25b7fddae"><rect x="0" width="26" y="0" height="18"/></clipPath><clipPath id="a6bf5d0e7b"><path d="M 37.808594 18.757812 L 62.851562 18.757812 L 62.851562 53.578125 L 37.808594 53.578125 Z M 37.808594 18.757812 " clip-rule="nonzero"/></clipPath><clipPath id="ff3defc5b5"><path d="M 50.335938 18.832031 L 37.914062 36.125 L 50.335938 53.40625 L 62.753906 36.125 Z M 50.335938 18.832031 " clip-rule="nonzero"/></clipPath><clipPath id="eb1f929422"><path d="M 0.863281 0.757812 L 25.78125 0.757812 L 25.78125 35.425781 L 0.863281 35.425781 Z M 0.863281 0.757812 " clip-rule="nonzero"/></clipPath><clipPath id="ceb8256299"><path d="M 13.335938 0.832031 L 0.914062 18.125 L 13.335938 35.40625 L 25.753906 18.125 Z M 13.335938 0.832031 " clip-rule="nonzero"/></clipPath><clipPath id="e7d6b6285b"><rect x="0" width="26" y="0" height="36"/></clipPath><clipPath id="66cbb740f0"><path d="M 4.714844 96.769531 L 409.207031 96.769531 L 409.207031 114.902344 L 4.714844 114.902344 Z M 4.714844 96.769531 " clip-rule="nonzero"/></clipPath><clipPath id="986144927b"><path d="M 12.304688 96.945312 L 15.109375 96.945312 L 22.699219 114.316406 L 19.496094 114.316406 L 17.75 110.15625 L 9.589844 110.15625 L 7.820312 114.316406 L 4.714844 114.316406 Z M 16.640625 107.464844 L 13.664062 100.566406 L 10.695312 107.464844 Z M 42.03125 112.984375 C 40.574219 114.011719 38.800781 114.605469 36.777344 114.605469 C 31.484375 114.605469 27.777344 110.582031 27.777344 105.730469 L 27.777344 105.691406 C 27.777344 100.839844 31.523438 96.769531 36.828125 96.769531 C 42.132812 96.769531 45.828125 100.792969 45.828125 105.644531 L 45.828125 105.691406 C 45.828125 107.640625 45.210938 109.488281 44.078125 110.996094 L 46.050781 112.667969 L 44.105469 114.84375 Z M 39.78125 110.984375 L 36.828125 108.472656 L 38.773438 106.257812 L 41.753906 108.960938 C 42.34375 108.042969 42.644531 106.9375 42.644531 105.730469 L 42.644531 105.691406 C 42.644531 102.335938 40.207031 99.558594 36.777344 99.558594 C 33.34375 99.558594 30.957031 102.300781 30.957031 105.644531 L 30.957031 105.691406 C 30.957031 109.050781 33.394531 111.828125 36.828125 111.828125 C 37.957031 111.828125 38.976562 111.5 39.78125 110.984375 M 53.179688 107 L 53.179688 97.070312 L 56.207031 97.070312 L 56.207031 106.875 C 56.207031 110.078125 57.855469 111.800781 60.570312 111.800781 C 63.257812 111.800781 64.90625 110.179688 64.90625 107 L 64.90625 97.070312 L 67.933594 97.070312 L 67.933594 106.847656 C 67.933594 112.003906 65.03125 114.578125 60.519531 114.578125 C 56.03125 114.578125 53.179688 111.988281 53.179688 106.988281 M 75.261719 97.070312 L 78.289062 97.070312 L 78.289062 114.316406 L 75.261719 114.316406 Z M 97.910156 105.742188 L 97.910156 105.691406 C 97.910156 100.839844 101.65625 96.769531 106.945312 96.769531 C 112.238281 96.769531 115.945312 100.792969 115.945312 105.644531 L 115.945312 105.691406 C 115.945312 110.542969 112.199219 114.617188 106.898438 114.617188 C 101.59375 114.617188 97.910156 110.59375 97.910156 105.742188 M 112.765625 105.742188 L 112.765625 105.691406 C 112.765625 102.335938 110.328125 99.558594 106.898438 99.558594 C 103.464844 99.558594 101.078125 102.300781 101.078125 105.644531 L 101.078125 105.691406 C 101.078125 109.050781 103.515625 111.828125 106.945312 111.828125 C 110.378906 111.828125 112.765625 109.085938 112.765625 105.742188 M 141.007812 99.875 L 135.550781 99.875 L 135.550781 97.070312 L 149.554688 97.070312 L 149.554688 99.875 L 144.085938 99.875 L 144.085938 114.316406 L 141.03125 114.316406 Z M 156.894531 97.070312 L 164.585938 97.070312 C 166.746094 97.070312 168.457031 97.710938 169.5625 98.792969 C 170.46875 99.722656 170.996094 101.003906 170.996094 102.511719 L 170.996094 102.5625 C 170.996094 105.402344 169.300781 107.101562 166.886719 107.792969 L 171.550781 114.328125 L 167.980469 114.328125 L 163.742188 108.320312 L 159.9375 108.320312 L 159.9375 114.328125 L 156.90625 114.328125 Z M 164.359375 105.617188 C 166.523438 105.617188 167.902344 104.488281 167.902344 102.738281 L 167.902344 102.6875 C 167.902344 100.839844 166.570312 99.835938 164.335938 99.835938 L 159.9375 99.835938 L 159.9375 105.617188 Z M 178.335938 97.070312 L 191.117188 97.070312 L 191.117188 99.773438 L 181.363281 99.773438 L 181.363281 104.261719 L 190.011719 104.261719 L 190.011719 106.976562 L 181.363281 106.976562 L 181.363281 111.601562 L 191.242188 111.601562 L 191.242188 114.316406 L 178.335938 114.316406 Z M 198.609375 97.070312 L 201.839844 97.070312 L 207.09375 105.226562 L 212.332031 97.070312 L 215.5625 97.070312 L 215.5625 114.316406 L 212.535156 114.316406 L 212.535156 101.949219 L 207.09375 110.078125 L 206.992188 110.078125 L 201.601562 101.996094 L 201.601562 114.316406 L 198.621094 114.316406 Z M 235.6875 97.070312 L 242.484375 97.070312 C 246.507812 97.070312 249.046875 99.359375 249.046875 102.839844 L 249.046875 102.890625 C 249.046875 106.761719 245.941406 108.785156 242.144531 108.785156 L 238.714844 108.785156 L 238.714844 114.328125 L 235.6875 114.328125 Z M 242.234375 106.046875 C 244.523438 106.046875 245.953125 104.761719 245.953125 102.964844 L 245.953125 102.902344 C 245.953125 100.878906 244.496094 99.824219 242.234375 99.824219 L 238.714844 99.824219 L 238.714844 106.03125 Z M 256.109375 97.070312 L 263.800781 97.070312 C 265.976562 97.070312 267.671875 97.710938 268.777344 98.792969 C 269.683594 99.722656 270.210938 101.003906 270.210938 102.511719 L 270.210938 102.5625 C 270.210938 105.402344 268.515625 107.101562 266.101562 107.792969 L 270.765625 114.328125 L 267.195312 114.328125 L 262.960938 108.320312 L 259.164062 108.320312 L 259.164062 114.328125 L 256.136719 114.328125 Z M 263.574219 105.617188 C 265.738281 105.617188 267.121094 104.488281 267.121094 102.738281 L 267.121094 102.6875 C 267.121094 100.839844 265.789062 99.835938 263.550781 99.835938 L 259.140625 99.835938 L 259.140625 105.617188 Z M 277.113281 105.742188 L 277.113281 105.691406 C 277.113281 100.839844 280.855469 96.769531 286.148438 96.769531 C 291.441406 96.769531 295.148438 100.792969 295.148438 105.644531 L 295.148438 105.691406 C 295.148438 110.542969 291.402344 114.617188 286.097656 114.617188 C 280.792969 114.617188 277.113281 110.59375 277.113281 105.742188 M 291.96875 105.742188 L 291.96875 105.691406 C 291.96875 102.335938 289.53125 99.558594 286.097656 99.558594 C 282.667969 99.558594 280.277344 102.300781 280.277344 105.644531 L 280.277344 105.691406 C 280.277344 109.050781 282.71875 111.828125 286.148438 111.828125 C 289.578125 111.828125 291.96875 109.085938 291.96875 105.742188 M 301.480469 111.800781 L 303.304688 109.628906 C 304.949219 111.058594 306.609375 111.863281 308.746094 111.863281 C 310.621094 111.863281 311.800781 110.996094 311.800781 109.691406 L 311.800781 109.640625 C 311.800781 108.40625 311.109375 107.742188 307.90625 107 C 304.234375 106.109375 302.160156 105.027344 302.160156 101.847656 L 302.160156 101.820312 C 302.160156 98.867188 304.625 96.820312 308.054688 96.820312 C 310.570312 96.820312 312.566406 97.585938 314.316406 98.992188 L 312.691406 101.28125 C 311.148438 100.125 309.589844 99.507812 308.019531 99.507812 C 306.246094 99.507812 305.214844 100.425781 305.214844 101.558594 L 305.214844 101.609375 C 305.214844 102.941406 306.007812 103.53125 309.3125 104.324219 C 312.957031 105.214844 314.855469 106.511719 314.855469 109.375 L 314.855469 109.425781 C 314.855469 112.65625 312.316406 114.578125 308.695312 114.578125 C 306.058594 114.578125 303.570312 113.660156 301.496094 111.8125 M 322.183594 97.070312 L 328.980469 97.070312 C 333.003906 97.070312 335.53125 99.359375 335.53125 102.839844 L 335.53125 102.890625 C 335.53125 106.761719 332.425781 108.785156 328.628906 108.785156 L 325.210938 108.785156 L 325.210938 114.328125 L 322.183594 114.328125 Z M 328.742188 106.046875 C 331.03125 106.046875 332.464844 104.761719 332.464844 102.964844 L 332.464844 102.902344 C 332.464844 100.878906 331.003906 99.824219 328.742188 99.824219 L 325.222656 99.824219 L 325.222656 106.03125 Z M 342.769531 97.070312 L 355.550781 97.070312 L 355.550781 99.773438 L 345.796875 99.773438 L 345.796875 104.261719 L 354.445312 104.261719 L 354.445312 106.976562 L 345.796875 106.976562 L 345.796875 111.601562 L 355.675781 111.601562 L 355.675781 114.316406 L 342.769531 114.316406 Z M 362.902344 97.070312 L 370.597656 97.070312 C 372.769531 97.070312 374.46875 97.710938 375.574219 98.792969 C 376.492188 99.722656 377.007812 101.003906 377.007812 102.511719 L 377.007812 102.5625 C 377.007812 105.402344 375.308594 107.101562 372.894531 107.792969 L 377.558594 114.328125 L 373.976562 114.328125 L 369.742188 108.320312 L 365.933594 108.320312 L 365.933594 114.328125 L 362.902344 114.328125 Z M 370.371094 105.617188 C 372.53125 105.617188 373.914062 104.488281 373.914062 102.738281 L 373.914062 102.6875 C 373.914062 100.839844 372.582031 99.835938 370.34375 99.835938 L 365.933594 99.835938 L 365.933594 105.617188 Z M 391.109375 96.945312 L 393.921875 96.945312 L 401.515625 114.316406 L 398.308594 114.316406 L 396.5625 110.15625 L 388.40625 110.15625 L 386.632812 114.316406 L 383.527344 114.316406 Z M 395.445312 107.464844 L 392.464844 100.566406 L 389.511719 107.464844 Z M 405.902344 110.933594 L 409.179688 110.933594 L 409.179688 114.316406 L 405.902344 114.316406 Z M 405.902344 110.933594 " clip-rule="nonzero"/></clipPath><clipPath id="490776a2ac"><path d="M 0.714844 0.769531 L 405.207031 0.769531 L 405.207031 18.902344 L 0.714844 18.902344 Z M 0.714844 0.769531 " clip-rule="nonzero"/></clipPath><clipPath id="30e850bb27"><path d="M 8.304688 0.945312 L 11.109375 0.945312 L 18.699219 18.316406 L 15.496094 18.316406 L 13.75 14.15625 L 5.589844 14.15625 L 3.820312 18.316406 L 0.714844 18.316406 Z M 12.640625 11.464844 L 9.664062 4.566406 L 6.695312 11.464844 Z M 38.03125 16.984375 C 36.574219 18.011719 34.800781 18.605469 32.777344 18.605469 C 27.484375 18.605469 23.777344 14.582031 23.777344 9.730469 L 23.777344 9.691406 C 23.777344 4.839844 27.523438 0.769531 32.828125 0.769531 C 38.132812 0.769531 41.828125 4.792969 41.828125 9.644531 L 41.828125 9.691406 C 41.828125 11.640625 41.210938 13.488281 40.078125 14.996094 L 42.050781 16.667969 L 40.105469 18.84375 Z M 35.78125 14.984375 L 32.828125 12.472656 L 34.773438 10.257812 L 37.753906 12.960938 C 38.34375 12.042969 38.644531 10.9375 38.644531 9.730469 L 38.644531 9.691406 C 38.644531 6.335938 36.207031 3.558594 32.777344 3.558594 C 29.34375 3.558594 26.957031 6.300781 26.957031 9.644531 L 26.957031 9.691406 C 26.957031 13.050781 29.394531 15.828125 32.828125 15.828125 C 33.957031 15.828125 34.976562 15.5 35.78125 14.984375 M 49.179688 11 L 49.179688 1.070312 L 52.207031 1.070312 L 52.207031 10.875 C 52.207031 14.078125 53.855469 15.800781 56.570312 15.800781 C 59.257812 15.800781 60.90625 14.179688 60.90625 11 L 60.90625 1.070312 L 63.933594 1.070312 L 63.933594 10.847656 C 63.933594 16.003906 61.03125 18.578125 56.519531 18.578125 C 52.03125 18.578125 49.179688 15.988281 49.179688 10.988281 M 71.261719 1.070312 L 74.289062 1.070312 L 74.289062 18.316406 L 71.261719 18.316406 Z M 93.910156 9.742188 L 93.910156 9.691406 C 93.910156 4.839844 97.65625 0.769531 102.945312 0.769531 C 108.238281 0.769531 111.945312 4.792969 111.945312 9.644531 L 111.945312 9.691406 C 111.945312 14.542969 108.199219 18.617188 102.898438 18.617188 C 97.59375 18.617188 93.910156 14.59375 93.910156 9.742188 M 108.765625 9.742188 L 108.765625 9.691406 C 108.765625 6.335938 106.328125 3.558594 102.898438 3.558594 C 99.464844 3.558594 97.078125 6.300781 97.078125 9.644531 L 97.078125 9.691406 C 97.078125 13.050781 99.515625 15.828125 102.945312 15.828125 C 106.378906 15.828125 108.765625 13.085938 108.765625 9.742188 M 137.007812 3.875 L 131.550781 3.875 L 131.550781 1.070312 L 145.554688 1.070312 L 145.554688 3.875 L 140.085938 3.875 L 140.085938 18.316406 L 137.03125 18.316406 Z M 152.894531 1.070312 L 160.585938 1.070312 C 162.746094 1.070312 164.457031 1.710938 165.5625 2.792969 C 166.46875 3.722656 166.996094 5.003906 166.996094 6.511719 L 166.996094 6.5625 C 166.996094 9.402344 165.300781 11.101562 162.886719 11.792969 L 167.550781 18.328125 L 163.980469 18.328125 L 159.742188 12.320312 L 155.9375 12.320312 L 155.9375 18.328125 L 152.90625 18.328125 Z M 160.359375 9.617188 C 162.523438 9.617188 163.902344 8.488281 163.902344 6.738281 L 163.902344 6.6875 C 163.902344 4.839844 162.570312 3.835938 160.335938 3.835938 L 155.9375 3.835938 L 155.9375 9.617188 Z M 174.335938 1.070312 L 187.117188 1.070312 L 187.117188 3.773438 L 177.363281 3.773438 L 177.363281 8.261719 L 186.011719 8.261719 L 186.011719 10.976562 L 177.363281 10.976562 L 177.363281 15.601562 L 187.242188 15.601562 L 187.242188 18.316406 L 174.335938 18.316406 Z M 194.609375 1.070312 L 197.839844 1.070312 L 203.09375 9.226562 L 208.332031 1.070312 L 211.5625 1.070312 L 211.5625 18.316406 L 208.535156 18.316406 L 208.535156 5.949219 L 203.09375 14.078125 L 202.992188 14.078125 L 197.601562 5.996094 L 197.601562 18.316406 L 194.621094 18.316406 Z M 231.6875 1.070312 L 238.484375 1.070312 C 242.507812 1.070312 245.046875 3.359375 245.046875 6.839844 L 245.046875 6.890625 C 245.046875 10.761719 241.941406 12.785156 238.144531 12.785156 L 234.714844 12.785156 L 234.714844 18.328125 L 231.6875 18.328125 Z M 238.234375 10.046875 C 240.523438 10.046875 241.953125 8.761719 241.953125 6.964844 L 241.953125 6.902344 C 241.953125 4.878906 240.496094 3.824219 238.234375 3.824219 L 234.714844 3.824219 L 234.714844 10.03125 Z M 252.109375 1.070312 L 259.800781 1.070312 C 261.976562 1.070312 263.671875 1.710938 264.777344 2.792969 C 265.683594 3.722656 266.210938 5.003906 266.210938 6.511719 L 266.210938 6.5625 C 266.210938 9.402344 264.515625 11.101562 262.101562 11.792969 L 266.765625 18.328125 L 263.195312 18.328125 L 258.960938 12.320312 L 255.164062 12.320312 L 255.164062 18.328125 L 252.136719 18.328125 Z M 259.574219 9.617188 C 261.738281 9.617188 263.121094 8.488281 263.121094 6.738281 L 263.121094 6.6875 C 263.121094 4.839844 261.789062 3.835938 259.550781 3.835938 L 255.140625 3.835938 L 255.140625 9.617188 Z M 273.113281 9.742188 L 273.113281 9.691406 C 273.113281 4.839844 276.855469 0.769531 282.148438 0.769531 C 287.441406 0.769531 291.148438 4.792969 291.148438 9.644531 L 291.148438 9.691406 C 291.148438 14.542969 287.402344 18.617188 282.097656 18.617188 C 276.792969 18.617188 273.113281 14.59375 273.113281 9.742188 M 287.96875 9.742188 L 287.96875 9.691406 C 287.96875 6.335938 285.53125 3.558594 282.097656 3.558594 C 278.667969 3.558594 276.277344 6.300781 276.277344 9.644531 L 276.277344 9.691406 C 276.277344 13.050781 278.71875 15.828125 282.148438 15.828125 C 285.578125 15.828125 287.96875 13.085938 287.96875 9.742188 M 297.480469 15.800781 L 299.304688 13.628906 C 300.949219 15.058594 302.609375 15.863281 304.746094 15.863281 C 306.621094 15.863281 307.800781 14.996094 307.800781 13.691406 L 307.800781 13.640625 C 307.800781 12.40625 307.109375 11.742188 303.90625 11 C 300.234375 10.109375 298.160156 9.027344 298.160156 5.847656 L 298.160156 5.820312 C 298.160156 2.867188 300.625 0.820312 304.054688 0.820312 C 306.570312 0.820312 308.566406 1.585938 310.316406 2.992188 L 308.691406 5.28125 C 307.148438 4.125 305.589844 3.507812 304.019531 3.507812 C 302.246094 3.507812 301.214844 4.425781 301.214844 5.558594 L 301.214844 5.609375 C 301.214844 6.941406 302.007812 7.53125 305.3125 8.324219 C 308.957031 9.214844 310.855469 10.511719 310.855469 13.375 L 310.855469 13.425781 C 310.855469 16.65625 308.316406 18.578125 304.695312 18.578125 C 302.058594 18.578125 299.570312 17.660156 297.496094 15.8125 M 318.183594 1.070312 L 324.980469 1.070312 C 329.003906 1.070312 331.53125 3.359375 331.53125 6.839844 L 331.53125 6.890625 C 331.53125 10.761719 328.425781 12.785156 324.628906 12.785156 L 321.210938 12.785156 L 321.210938 18.328125 L 318.183594 18.328125 Z M 324.742188 10.046875 C 327.03125 10.046875 328.464844 8.761719 328.464844 6.964844 L 328.464844 6.902344 C 328.464844 4.878906 327.003906 3.824219 324.742188 3.824219 L 321.222656 3.824219 L 321.222656 10.03125 Z M 338.769531 1.070312 L 351.550781 1.070312 L 351.550781 3.773438 L 341.796875 3.773438 L 341.796875 8.261719 L 350.445312 8.261719 L 350.445312 10.976562 L 341.796875 10.976562 L 341.796875 15.601562 L 351.675781 15.601562 L 351.675781 18.316406 L 338.769531 18.316406 Z M 358.902344 1.070312 L 366.597656 1.070312 C 368.769531 1.070312 370.46875 1.710938 371.574219 2.792969 C 372.492188 3.722656 373.007812 5.003906 373.007812 6.511719 L 373.007812 6.5625 C 373.007812 9.402344 371.308594 11.101562 368.894531 11.792969 L 373.558594 18.328125 L 369.976562 18.328125 L 365.742188 12.320312 L 361.933594 12.320312 L 361.933594 18.328125 L 358.902344 18.328125 Z M 366.371094 9.617188 C 368.53125 9.617188 369.914062 8.488281 369.914062 6.738281 L 369.914062 6.6875 C 369.914062 4.839844 368.582031 3.835938 366.34375 3.835938 L 361.933594 3.835938 L 361.933594 9.617188 Z M 387.109375 0.945312 L 389.921875 0.945312 L 397.515625 18.316406 L 394.308594 18.316406 L 392.5625 14.15625 L 384.40625 14.15625 L 382.632812 18.316406 L 379.527344 18.316406 Z M 391.445312 11.464844 L 388.464844 4.566406 L 385.511719 11.464844 Z M 401.902344 14.933594 L 405.179688 14.933594 L 405.179688 18.316406 L 401.902344 18.316406 Z M 401.902344 14.933594 " clip-rule="nonzero"/></clipPath><clipPath id="032ad78248"><rect x="0" width="406" y="0" height="19"/></clipPath><clipPath id="a9e5a7ea1b"><path d="M 102.171875 0.75 L 365 0.75 L 365 90 L 102.171875 90 Z M 102.171875 0.75 " clip-rule="nonzero"/></clipPath><clipPath id="d37a60368a"><path d="M 223.5 89.027344 L 223.5 70.527344 L 215.300781 83.175781 L 215.300781 83.230469 L 210.21875 83.230469 L 210.21875 83.175781 L 201.960938 70.417969 L 201.960938 89.027344 L 192.84375 89.027344 L 192.84375 52.140625 L 199.625 52.140625 L 212.753906 71.835938 L 225.835938 52.140625 L 232.671875 52.140625 L 232.671875 89.027344 Z M 238.316406 89.027344 L 247.488281 89.027344 L 247.488281 52.140625 L 238.316406 52.140625 Z M 287.101562 89.027344 L 287.101562 52.140625 L 277.929688 52.140625 L 277.929688 72.917969 L 260.132812 52.140625 L 253.140625 52.140625 L 253.140625 89.027344 L 262.3125 89.027344 L 262.3125 68.796875 L 279.996094 89.039062 Z M 304.171875 82.683594 L 319.800781 82.683594 L 322.292969 89.027344 L 332.003906 89.027344 L 316.472656 52.140625 L 307.546875 52.140625 L 291.960938 89.027344 L 301.726562 89.027344 Z M 311.980469 62.609375 L 316.753906 74.875 L 307.199219 74.875 Z M 364.902344 63.613281 C 363.976562 53.679688 355.074219 51.347656 349.105469 51.347656 C 340.425781 51.347656 334.460938 56.015625 334.460938 63.390625 C 334.460938 69.253906 337.878906 72.671875 345.152344 74.238281 L 351.230469 75.601562 C 354.367188 76.191406 355.140625 77.5 355.140625 78.75 C 355.140625 80.761719 353.351562 82.011719 349.933594 82.011719 C 345.585938 82.011719 342.773438 80.058594 342.167969 76.808594 L 332.996094 76.808594 C 333.867188 85.921875 341.351562 89.832031 349.652344 89.832031 C 358.882812 89.832031 364.960938 85.21875 364.960938 77.847656 C 364.960938 71.5 360.570312 68.785156 353.832031 67.320312 L 348.671875 66.125 C 345.898438 65.535156 344.4375 64.664062 344.4375 62.652344 C 344.4375 60.261719 346.546875 58.964844 349.699219 58.964844 C 353.441406 58.964844 355.183594 60.863281 355.664062 63.636719 Z M 170.835938 88.90625 L 170.835938 80.953125 L 152.191406 80.953125 L 152.191406 74.574219 L 168.5 74.574219 L 168.5 66.796875 L 152.191406 66.796875 L 152.191406 60.105469 L 170.835938 60.105469 L 170.835938 52.160156 L 143.0625 52.160156 L 143.0625 88.90625 Z M 112.5625 60.382812 L 118.183594 60.382812 C 121.164062 60.382812 123.667969 61.34375 125.679688 63.277344 C 127.691406 65.210938 128.695312 67.589844 128.695312 70.429688 C 128.695312 73.34375 127.691406 75.769531 125.679688 77.734375 C 123.667969 79.691406 121.164062 80.671875 118.183594 80.671875 L 112.5625 80.671875 Z M 118.148438 88.90625 C 120.988281 88.90625 123.632812 88.449219 126.09375 87.542969 C 128.550781 86.636719 130.640625 85.375 132.382812 83.777344 C 134.113281 82.160156 135.476562 80.191406 136.449219 77.902344 C 137.421875 75.613281 137.933594 73.109375 137.933594 70.429688 C 137.933594 67.769531 137.441406 65.324219 136.449219 63.042969 C 135.464844 60.777344 134.113281 58.855469 132.382812 57.265625 C 130.640625 55.667969 128.550781 54.417969 126.09375 53.515625 C 123.632812 52.621094 120.976562 52.160156 118.148438 52.160156 L 103.445312 52.160156 L 103.445312 88.917969 Z M 102.171875 19.171875 C 102.171875 22.46875 102.945312 25.449219 104.496094 28.140625 C 106.050781 30.835938 108.238281 32.957031 111.066406 34.519531 C 113.902344 36.109375 117.078125 36.890625 120.640625 36.890625 C 125.308594 36.890625 128.964844 35.246094 131.621094 31.972656 L 131.980469 36.164062 L 138.414062 36.164062 L 138.414062 16.679688 L 119.835938 16.679688 L 119.835938 23.460938 L 129.78125 23.550781 C 128.898438 25.25 127.710938 26.554688 126.203125 27.484375 C 124.695312 28.410156 122.953125 28.867188 120.953125 28.867188 C 117.949219 28.867188 115.523438 27.917969 113.667969 26.019531 C 111.816406 24.121094 110.886719 21.761719 110.886719 18.96875 C 110.886719 15.886719 111.804688 13.394531 113.648438 11.484375 C 115.492188 9.574219 117.902344 8.625 120.898438 8.625 C 121.722656 8.625 122.515625 8.714844 123.265625 8.871094 C 124.015625 9.027344 124.773438 9.316406 125.511719 9.6875 C 126.238281 10.066406 126.917969 10.601562 127.511719 11.304688 C 128.105469 12.011719 128.574219 12.835938 128.929688 13.808594 L 138.023438 13.808594 C 137.53125 11.117188 136.449219 8.769531 134.773438 6.78125 C 133.097656 4.792969 131.042969 3.285156 128.605469 2.277344 C 126.214844 1.25 123.566406 0.761719 120.707031 0.761719 C 117.210938 0.761719 114.058594 1.53125 111.246094 3.082031 C 108.429688 4.636719 106.195312 6.828125 104.585938 9.640625 C 102.976562 12.457031 102.171875 15.628906 102.171875 19.171875 M 155.183594 11.730469 C 157.015625 9.765625 159.316406 8.78125 162.078125 8.78125 C 164.835938 8.78125 167.128906 9.777344 168.96875 11.730469 C 170.800781 13.695312 171.71875 16.066406 171.71875 18.835938 C 171.71875 21.605469 170.800781 23.976562 168.96875 25.917969 C 167.128906 27.886719 164.824219 28.855469 162.078125 28.855469 C 159.328125 28.855469 157.015625 27.886719 155.183594 25.917969 C 153.351562 23.953125 152.4375 21.59375 152.4375 18.835938 C 152.4375 16.078125 153.339844 13.6875 155.183594 11.730469 M 146.113281 27.953125 C 147.710938 30.722656 149.910156 32.890625 152.714844 34.488281 C 155.519531 36.085938 158.660156 36.878906 162.078125 36.878906 C 164.648438 36.878906 167.058594 36.410156 169.351562 35.472656 C 171.640625 34.53125 173.574219 33.257812 175.191406 31.648438 C 176.8125 30.042969 178.097656 28.121094 179.035156 25.898438 C 179.976562 23.671875 180.445312 21.316406 180.445312 18.824219 C 180.445312 16.332031 179.976562 13.976562 179.035156 11.742188 C 178.097656 9.507812 176.824219 7.597656 175.191406 5.988281 C 173.574219 4.367188 171.617188 3.09375 169.351562 2.15625 C 167.082031 1.21875 164.648438 0.75 162.078125 0.75 C 158.660156 0.75 155.53125 1.554688 152.714844 3.152344 C 149.898438 4.75 147.699219 6.925781 146.113281 9.699219 C 144.527344 12.46875 143.710938 15.507812 143.710938 18.824219 C 143.710938 22.144531 144.503906 25.183594 146.113281 27.941406 M 195.605469 36.355469 L 204.320312 36.355469 L 219.324219 1.453125 L 209.835938 1.453125 L 199.9375 24.96875 L 190.019531 1.453125 L 180.535156 1.453125 Z M 250.804688 36.21875 L 250.804688 28.710938 L 233.199219 28.710938 L 233.199219 22.691406 L 248.605469 22.691406 L 248.605469 15.339844 L 233.199219 15.339844 L 233.199219 9.015625 L 250.804688 9.015625 L 250.804688 1.507812 L 224.585938 1.507812 L 224.585938 36.21875 Z M 265.039062 9.070312 L 271.417969 9.070312 C 273.113281 9.070312 274.523438 9.496094 275.640625 10.335938 C 276.78125 11.171875 277.347656 12.277344 277.347656 13.664062 C 277.347656 15.082031 276.78125 16.199219 275.640625 17.058594 C 274.523438 17.910156 273.113281 18.34375 271.417969 18.34375 L 265.039062 18.34375 Z M 265.039062 36.164062 L 265.039062 26.121094 L 271.5625 26.121094 L 278.1875 36.164062 L 288.253906 36.164062 L 280.085938 24.03125 C 281.953125 22.949219 283.394531 21.507812 284.421875 19.71875 C 285.449219 17.929688 285.960938 15.910156 285.960938 13.664062 C 285.960938 9.941406 284.65625 6.984375 282.019531 4.769531 C 279.382812 2.558594 275.90625 1.453125 271.574219 1.453125 L 256.425781 1.453125 L 256.425781 36.164062 Z M 299.804688 36.164062 L 299.804688 17.125 L 316.460938 36.164062 L 323.144531 36.164062 L 323.144531 1.453125 L 314.519531 1.453125 L 314.519531 21.015625 L 297.773438 1.453125 L 291.179688 1.453125 L 291.179688 36.164062 Z M 339.667969 11.730469 C 341.507812 9.765625 343.8125 8.78125 346.558594 8.78125 C 349.308594 8.78125 351.609375 9.777344 353.453125 11.730469 C 355.296875 13.6875 356.199219 16.066406 356.199219 18.835938 C 356.199219 21.605469 355.285156 23.976562 353.453125 25.917969 C 351.621094 27.863281 349.320312 28.855469 346.558594 28.855469 C 343.800781 28.855469 341.5 27.886719 339.667969 25.917969 C 337.835938 23.953125 336.917969 21.59375 336.917969 18.835938 C 336.917969 16.078125 337.835938 13.6875 339.667969 11.730469 M 330.59375 27.953125 C 332.191406 30.722656 334.40625 32.890625 337.207031 34.488281 C 340.023438 36.085938 343.152344 36.878906 346.570312 36.878906 C 349.140625 36.878906 351.5625 36.410156 353.832031 35.472656 C 356.101562 34.53125 358.054688 33.257812 359.6875 31.648438 C 361.316406 30.042969 362.589844 28.121094 363.539062 25.898438 C 364.46875 23.671875 364.9375 21.316406 364.9375 18.824219 C 364.9375 16.332031 364.46875 13.976562 363.539062 11.742188 C 362.589844 9.519531 361.316406 7.597656 359.6875 5.988281 C 358.054688 4.367188 356.113281 3.09375 353.832031 2.15625 C 351.554688 1.21875 349.140625 0.75 346.570312 0.75 C 343.140625 0.75 340.023438 1.554688 337.207031 3.152344 C 334.40625 4.75 332.191406 6.925781 330.59375 9.699219 C 328.996094 12.46875 328.203125 15.507812 328.203125 18.824219 C 328.203125 22.144531 328.996094 25.183594 330.59375 27.941406 " clip-rule="nonzero"/></clipPath><clipPath id="677b7bc3b4"><path d="M 0.171875 0.75 L 263 0.75 L 263 89.84375 L 0.171875 89.84375 Z M 0.171875 0.75 " clip-rule="nonzero"/></clipPath><clipPath id="1cc55152eb"><path d="M 121.5 89.027344 L 121.5 70.527344 L 113.300781 83.175781 L 113.300781 83.230469 L 108.21875 83.230469 L 108.21875 83.175781 L 99.960938 70.417969 L 99.960938 89.027344 L 90.84375 89.027344 L 90.84375 52.140625 L 97.625 52.140625 L 110.753906 71.835938 L 123.835938 52.140625 L 130.671875 52.140625 L 130.671875 89.027344 Z M 136.316406 89.027344 L 145.488281 89.027344 L 145.488281 52.140625 L 136.316406 52.140625 Z M 185.101562 89.027344 L 185.101562 52.140625 L 175.929688 52.140625 L 175.929688 72.917969 L 158.132812 52.140625 L 151.140625 52.140625 L 151.140625 89.027344 L 160.3125 89.027344 L 160.3125 68.796875 L 177.996094 89.039062 Z M 202.171875 82.683594 L 217.800781 82.683594 L 220.292969 89.027344 L 230.003906 89.027344 L 214.472656 52.140625 L 205.546875 52.140625 L 189.960938 89.027344 L 199.726562 89.027344 Z M 209.980469 62.609375 L 214.753906 74.875 L 205.199219 74.875 Z M 262.902344 63.613281 C 261.976562 53.679688 253.074219 51.347656 247.105469 51.347656 C 238.425781 51.347656 232.460938 56.015625 232.460938 63.390625 C 232.460938 69.253906 235.878906 72.671875 243.152344 74.238281 L 249.230469 75.601562 C 252.367188 76.191406 253.140625 77.5 253.140625 78.75 C 253.140625 80.761719 251.351562 82.011719 247.933594 82.011719 C 243.585938 82.011719 240.773438 80.058594 240.167969 76.808594 L 230.996094 76.808594 C 231.867188 85.921875 239.351562 89.832031 247.652344 89.832031 C 256.882812 89.832031 262.960938 85.21875 262.960938 77.847656 C 262.960938 71.5 258.570312 68.785156 251.832031 67.320312 L 246.671875 66.125 C 243.898438 65.535156 242.4375 64.664062 242.4375 62.652344 C 242.4375 60.261719 244.546875 58.964844 247.699219 58.964844 C 251.441406 58.964844 253.183594 60.863281 253.664062 63.636719 Z M 68.835938 88.90625 L 68.835938 80.953125 L 50.191406 80.953125 L 50.191406 74.574219 L 66.5 74.574219 L 66.5 66.796875 L 50.191406 66.796875 L 50.191406 60.105469 L 68.835938 60.105469 L 68.835938 52.160156 L 41.0625 52.160156 L 41.0625 88.90625 Z M 10.5625 60.382812 L 16.183594 60.382812 C 19.164062 60.382812 21.667969 61.34375 23.679688 63.277344 C 25.691406 65.210938 26.695312 67.589844 26.695312 70.429688 C 26.695312 73.34375 25.691406 75.769531 23.679688 77.734375 C 21.667969 79.691406 19.164062 80.671875 16.183594 80.671875 L 10.5625 80.671875 Z M 16.148438 88.90625 C 18.988281 88.90625 21.632812 88.449219 24.09375 87.542969 C 26.550781 86.636719 28.640625 85.375 30.382812 83.777344 C 32.113281 82.160156 33.476562 80.191406 34.449219 77.902344 C 35.421875 75.613281 35.933594 73.109375 35.933594 70.429688 C 35.933594 67.769531 35.441406 65.324219 34.449219 63.042969 C 33.464844 60.777344 32.113281 58.855469 30.382812 57.265625 C 28.640625 55.667969 26.550781 54.417969 24.09375 53.515625 C 21.632812 52.621094 18.976562 52.160156 16.148438 52.160156 L 1.445312 52.160156 L 1.445312 88.917969 Z M 0.171875 19.171875 C 0.171875 22.46875 0.945312 25.449219 2.496094 28.140625 C 4.050781 30.835938 6.238281 32.957031 9.066406 34.519531 C 11.902344 36.109375 15.078125 36.890625 18.640625 36.890625 C 23.308594 36.890625 26.964844 35.246094 29.621094 31.972656 L 29.980469 36.164062 L 36.414062 36.164062 L 36.414062 16.679688 L 17.835938 16.679688 L 17.835938 23.460938 L 27.78125 23.550781 C 26.898438 25.25 25.710938 26.554688 24.203125 27.484375 C 22.695312 28.410156 20.953125 28.867188 18.953125 28.867188 C 15.949219 28.867188 13.523438 27.917969 11.667969 26.019531 C 9.816406 24.121094 8.886719 21.761719 8.886719 18.96875 C 8.886719 15.886719 9.804688 13.394531 11.648438 11.484375 C 13.492188 9.574219 15.902344 8.625 18.898438 8.625 C 19.722656 8.625 20.515625 8.714844 21.265625 8.871094 C 22.015625 9.027344 22.773438 9.316406 23.511719 9.6875 C 24.238281 10.066406 24.917969 10.601562 25.511719 11.304688 C 26.105469 12.011719 26.574219 12.835938 26.929688 13.808594 L 36.023438 13.808594 C 35.53125 11.117188 34.449219 8.769531 32.773438 6.78125 C 31.097656 4.792969 29.042969 3.285156 26.605469 2.277344 C 24.214844 1.25 21.566406 0.761719 18.707031 0.761719 C 15.210938 0.761719 12.058594 1.53125 9.246094 3.082031 C 6.429688 4.636719 4.195312 6.828125 2.585938 9.640625 C 0.976562 12.457031 0.171875 15.628906 0.171875 19.171875 M 53.183594 11.730469 C 55.015625 9.765625 57.316406 8.78125 60.078125 8.78125 C 62.835938 8.78125 65.128906 9.777344 66.96875 11.730469 C 68.800781 13.695312 69.71875 16.066406 69.71875 18.835938 C 69.71875 21.605469 68.800781 23.976562 66.96875 25.917969 C 65.128906 27.886719 62.824219 28.855469 60.078125 28.855469 C 57.328125 28.855469 55.015625 27.886719 53.183594 25.917969 C 51.351562 23.953125 50.4375 21.59375 50.4375 18.835938 C 50.4375 16.078125 51.339844 13.6875 53.183594 11.730469 M 44.113281 27.953125 C 45.710938 30.722656 47.910156 32.890625 50.714844 34.488281 C 53.519531 36.085938 56.660156 36.878906 60.078125 36.878906 C 62.648438 36.878906 65.058594 36.410156 67.351562 35.472656 C 69.640625 34.53125 71.574219 33.257812 73.191406 31.648438 C 74.8125 30.042969 76.097656 28.121094 77.035156 25.898438 C 77.976562 23.671875 78.445312 21.316406 78.445312 18.824219 C 78.445312 16.332031 77.976562 13.976562 77.035156 11.742188 C 76.097656 9.507812 74.824219 7.597656 73.191406 5.988281 C 71.574219 4.367188 69.617188 3.09375 67.351562 2.15625 C 65.082031 1.21875 62.648438 0.75 60.078125 0.75 C 56.660156 0.75 53.53125 1.554688 50.714844 3.152344 C 47.898438 4.75 45.699219 6.925781 44.113281 9.699219 C 42.527344 12.46875 41.710938 15.507812 41.710938 18.824219 C 41.710938 22.144531 42.503906 25.183594 44.113281 27.941406 M 93.605469 36.355469 L 102.320312 36.355469 L 117.324219 1.453125 L 107.835938 1.453125 L 97.9375 24.96875 L 88.019531 1.453125 L 78.535156 1.453125 Z M 148.804688 36.21875 L 148.804688 28.710938 L 131.199219 28.710938 L 131.199219 22.691406 L 146.605469 22.691406 L 146.605469 15.339844 L 131.199219 15.339844 L 131.199219 9.015625 L 148.804688 9.015625 L 148.804688 1.507812 L 122.585938 1.507812 L 122.585938 36.21875 Z M 163.039062 9.070312 L 169.417969 9.070312 C 171.113281 9.070312 172.523438 9.496094 173.640625 10.335938 C 174.78125 11.171875 175.347656 12.277344 175.347656 13.664062 C 175.347656 15.082031 174.78125 16.199219 173.640625 17.058594 C 172.523438 17.910156 171.113281 18.34375 169.417969 18.34375 L 163.039062 18.34375 Z M 163.039062 36.164062 L 163.039062 26.121094 L 169.5625 26.121094 L 176.1875 36.164062 L 186.253906 36.164062 L 178.085938 24.03125 C 179.953125 22.949219 181.394531 21.507812 182.421875 19.71875 C 183.449219 17.929688 183.960938 15.910156 183.960938 13.664062 C 183.960938 9.941406 182.65625 6.984375 180.019531 4.769531 C 177.382812 2.558594 173.90625 1.453125 169.574219 1.453125 L 154.425781 1.453125 L 154.425781 36.164062 Z M 197.804688 36.164062 L 197.804688 17.125 L 214.460938 36.164062 L 221.144531 36.164062 L 221.144531 1.453125 L 212.519531 1.453125 L 212.519531 21.015625 L 195.773438 1.453125 L 189.179688 1.453125 L 189.179688 36.164062 Z M 237.667969 11.730469 C 239.507812 9.765625 241.8125 8.78125 244.558594 8.78125 C 247.308594 8.78125 249.609375 9.777344 251.453125 11.730469 C 253.296875 13.6875 254.199219 16.066406 254.199219 18.835938 C 254.199219 21.605469 253.285156 23.976562 251.453125 25.917969 C 249.621094 27.863281 247.320312 28.855469 244.558594 28.855469 C 241.800781 28.855469 239.5 27.886719 237.667969 25.917969 C 235.835938 23.953125 234.917969 21.59375 234.917969 18.835938 C 234.917969 16.078125 235.835938 13.6875 237.667969 11.730469 M 228.59375 27.953125 C 230.191406 30.722656 232.40625 32.890625 235.207031 34.488281 C 238.023438 36.085938 241.152344 36.878906 244.570312 36.878906 C 247.140625 36.878906 249.5625 36.410156 251.832031 35.472656 C 254.101562 34.53125 256.054688 33.257812 257.6875 31.648438 C 259.316406 30.042969 260.589844 28.121094 261.539062 25.898438 C 262.46875 23.671875 262.9375 21.316406 262.9375 18.824219 C 262.9375 16.332031 262.46875 13.976562 261.539062 11.742188 C 260.589844 9.519531 259.316406 7.597656 257.6875 5.988281 C 256.054688 4.367188 254.113281 3.09375 251.832031 2.15625 C 249.554688 1.21875 247.140625 0.75 244.570312 0.75 C 241.140625 0.75 238.023438 1.554688 235.207031 3.152344 C 232.40625 4.75 230.191406 6.925781 228.59375 9.699219 C 226.996094 12.46875 226.203125 15.507812 226.203125 18.824219 C 226.203125 22.144531 226.996094 25.183594 228.59375 27.941406 " clip-rule="nonzero"/></clipPath><clipPath id="8933d0443c"><rect x="0" width="263" y="0" height="90"/></clipPath></defs><g clip-path="url(#55c682629c)"><g transform="matrix(1, 0, 0, 1, 5, 0.000000000000007716)"><g clip-path="url(#a12d247430)"><g clip-path="url(#e6e3a16b5e)"><rect x="-100.205" width="623.16" fill="#dcddde" height="208.439996" y="-31.844999" fill-opacity="1"/></g></g></g></g><g clip-path="url(#812fa5003f)"><g clip-path="url(#2feca5bd0a)"><g transform="matrix(1, 0, 0, 1, 13, 36)"><g clip-path="url(#c74141214d)"><g clip-path="url(#ec7eb5aaf2)"><g clip-path="url(#35202b2c0b)"><rect x="-108.205" width="623.16" fill="#ed1d24" height="208.439996" y="-67.844999" fill-opacity="1"/></g></g></g></g></g></g><g clip-path="url(#e63668a391)"><g clip-path="url(#81d7dddba9)"><g transform="matrix(1, 0, 0, 1, 37, 53)"><g clip-path="url(#f25b7fddae)"><g clip-path="url(#8f0b6a1957)"><g clip-path="url(#1e4bfae88a)"><rect x="-132.205" width="623.16" fill="#e0a5ad" height="208.439996" y="-84.844999" fill-opacity="1"/></g></g></g></g></g></g><g clip-path="url(#a6bf5d0e7b)"><g clip-path="url(#ff3defc5b5)"><g transform="matrix(1, 0, 0, 1, 37, 18)"><g clip-path="url(#e7d6b6285b)"><g clip-path="url(#eb1f929422)"><g clip-path="url(#ceb8256299)"><rect x="-132.205" width="623.16" fill="#b11116" height="208.439996" y="-49.844999" fill-opacity="1"/></g></g></g></g></g></g><g clip-path="url(#66cbb740f0)"><g clip-path="url(#986144927b)"><g transform="matrix(1, 0, 0, 1, 4, 96)"><g clip-path="url(#032ad78248)"><g clip-path="url(#490776a2ac)"><g clip-path="url(#30e850bb27)"><path fill="#ffffff" d="M 0.714844 0.769531 L 405.207031 0.769531 L 405.207031 18.832031 L 0.714844 18.832031 Z M 0.714844 0.769531 " fill-opacity="1" fill-rule="nonzero"/></g></g></g></g></g></g><g clip-path="url(#a9e5a7ea1b)"><g clip-path="url(#d37a60368a)"><g transform="matrix(1, 0, 0, 1, 102, 0.000000000000007661)"><g clip-path="url(#8933d0443c)"><g clip-path="url(#677b7bc3b4)"><g clip-path="url(#1cc55152eb)"><path fill="#ffffff" d="M 0.171875 0.75 L 262.871094 0.75 L 262.871094 89.824219 L 0.171875 89.824219 Z M 0.171875 0.75 " fill-opacity="1" fill-rule="nonzero"/></g></g></g></g></g></g></svg>